<svg width="164" height="70" viewBox="0 0 164 70" fill="none" xmlns="http://www.w3.org/2000/svg">
  <path d="M28.1694 42.521H0.5V69.9747H28.1694V42.521Z" fill="#FFC800"/>
  <path d="M62.0018 42.521H34.3325V69.9747H62.0018V42.521Z" fill="white"/>
  <path d="M48.1803 42.521H34.3325V56.2608H48.1803V42.521Z" fill="#D20000"/>
  <path d="M62.028 56.2603H48.1802V70.0001H62.028V56.2603Z" fill="#D20000"/>
  <path d="M77.3971 42.521H68.1653V69.9747H77.3971V42.521Z" fill="white"/>
  <path d="M95.8346 69.9747H77.3971V42.521H95.8346L86.6027 56.2608L95.8346 69.9747Z" fill="#69A2FF"/>
  <path d="M129.667 42.521H101.998V69.9747H129.667V42.521Z" fill="#FFC800"/>
  <path d="M101.998 48.6102V42.521H108.135L101.998 48.6102Z" fill="#D20000"/>
  <path d="M101.998 60.8148V54.7255L114.298 42.521H120.435L101.998 60.8148Z" fill="#D20000"/>
  <path d="M105.066 69.9747H101.998V66.93L126.599 42.521H129.667V45.5656L105.066 69.9747Z" fill="#D20000"/>
  <path d="M129.667 63.8848V69.974H123.504L129.667 63.8848Z" fill="#D20000"/>
  <path d="M129.667 51.6799V57.7692L117.367 69.9737H111.204L129.667 51.6799Z" fill="#D20000"/>
  <path d="M163.474 42.521H135.804V51.6809H163.474V42.521Z" fill="#D20000"/>
  <path d="M163.474 51.6799H135.804V60.8398H163.474V51.6799Z" fill="#FFC800"/>
  <path d="M163.474 60.8391H135.804V69.999H163.474V60.8391Z" fill="#D20000"/>
  <path d="M0.99791 30.0559H0.5V36.6916H0.99791V30.0559Z" fill="#000000"/>
  <path d="M4.87979 30.0559H5.35188L9.94158 35.8329V30.0559H10.4399V36.6916H10.0465L5.35188 30.7845V36.6916H4.87979V30.0559Z" fill="#000000"/>
  <path d="M16.0785 30.4983H13.7444V30.0559H18.9111V30.4983H16.5769V36.6916H16.0785V30.4983Z" fill="#000000"/>
  <path d="M22.2157 30.0559H26.9627V30.4983H22.714V33.1005H26.5431V33.5689H22.714V36.2232H27.0152V36.6916H22.2157V30.0559Z" fill="#000000"/>
  <path d="M30.4249 30.0559H33.2312C34.0442 30.0559 34.6999 30.3161 35.1195 30.7065C35.4342 31.0187 35.6178 31.4611 35.6178 31.9295V31.9556C35.6178 33.0745 34.7786 33.699 33.6508 33.8552L35.8539 36.6916H35.2244L33.1 33.9333H30.9232V36.6916H30.4249V30.0559ZM33.1525 33.4909C34.2803 33.4909 35.0933 32.9444 35.0933 31.9816V31.9556C35.0933 31.0708 34.3852 30.4983 33.1787 30.4983H30.897V33.4909H33.1525Z" fill="#000000"/>
  <path d="M39.132 30.0559H39.6041L44.2201 35.8329V30.0559H44.6922V36.6916H44.325L39.6041 30.7845V36.6916H39.132V30.0559Z" fill="#000000"/>
  <path d="M51.0392 30.0042H51.5113L54.6323 36.6919H54.0815L53.2422 34.8443H49.3082L48.4689 36.6919H47.9444L51.0392 30.0042ZM53.0062 34.3759L51.249 30.5506L49.4918 34.3759H53.0062Z" fill="#000000"/>
  <path d="M59.6941 30.4983H57.3599V30.0559H62.5004V30.4983H60.1924V36.6916H59.6941V30.4983Z" fill="#000000"/>
  <path d="M66.4077 30.0559H65.9098V36.6916H66.4077V30.0559Z" fill="#000000"/>
  <path d="M69.9749 33.386C69.9749 31.5645 71.3125 29.925 73.3582 29.925C75.3776 29.925 76.7152 31.5384 76.7152 33.334V33.36C76.7152 35.1816 75.3776 36.795 73.3319 36.795C71.2862 36.795 69.9749 35.2076 69.9749 33.386ZM76.1644 33.386C76.1644 31.7206 74.958 30.3935 73.3057 30.3935C71.6534 30.3935 70.4732 31.7206 70.4732 33.36V33.386C70.4732 35.0255 71.6796 36.3786 73.3319 36.3786C74.9842 36.3526 76.1644 35.0255 76.1644 33.386Z" fill="#000000"/>
  <path d="M80.2034 30.0559H80.6492L85.2652 35.8329V30.0559H85.7372V36.6916H85.3701L80.6755 30.7845V36.6916H80.2034V30.0559Z" fill="#000000"/>
  <path d="M92.0841 30.0042H92.5562L95.6772 36.6919H95.1264L94.2872 34.8443H90.3532L89.5139 36.6919H88.9893L92.0841 30.0042ZM94.0774 34.3759L92.3202 30.5506L90.563 34.3759H94.0774Z" fill="#000000"/>
  <path d="M98.9031 30.0559H99.4014V36.2232H103.309V36.6916H98.9031V30.0559Z" fill="#000000"/>
  <path d="M115.977 30.0559H118.783C119.596 30.0559 120.252 30.3161 120.672 30.7065C120.986 31.0187 121.17 31.4611 121.17 31.9295V31.9556C121.17 33.0745 120.331 33.699 119.203 33.8552L121.406 36.6916H120.776L118.652 33.9333H116.475V36.6916H115.977V30.0559ZM118.731 33.4909C119.859 33.4909 120.672 32.9444 120.672 31.9816V31.9556C120.672 31.0708 119.963 30.4983 118.757 30.4983H116.475V33.4909H118.731Z" fill="#000000"/>
  <path d="M124.684 30.0559H129.458V30.4983H125.183V33.1005H129.012V33.5689H125.183V36.2232H129.484V36.6916H124.684V30.0559Z" fill="#000000"/>
  <path d="M135.437 30.0042H135.909L139.03 36.6919H138.48L137.64 34.8443H133.706L132.867 36.6919H132.343L135.437 30.0042ZM137.431 34.3759L135.673 30.5506L133.916 34.3759H137.431Z" fill="#000000"/>
  <path d="M142.23 30.0559H142.728V36.2232H146.662V36.6916H142.23V30.0559Z" fill="#000000"/>
  <path d="M151.829 30.4983H149.495V30.0559H154.635V30.4983H152.301V36.6916H151.829V30.4983Z" fill="#000000"/>
  <path d="M160.143 34.0634L157.258 30.0559H157.887L160.379 33.621L162.897 30.0559H163.5L160.641 34.0373V36.6916H160.143V34.0634Z" fill="#000000"/>
  <path d="M158.517 6.4003L154.53 7.36313L153.481 3.27761L160.064 1.32593H163.5V24.2257H158.517V6.4003Z" fill="#000000"/>
  <path d="M22.2156 24.5131L19.6716 22.1971C17.7308 23.4722 15.3704 24.2009 12.8001 24.2009C5.64019 24.2009 0.52594 18.8142 0.52594 12.1785V12.1004C0.52594 5.43868 5.71887 0 12.8788 0C20.0388 0 25.153 5.38664 25.153 12.0224V12.1004C25.153 14.5726 24.3924 16.8886 23.1073 18.8142L25.494 20.844L22.2156 24.5131ZM15.8949 18.8402L12.1182 15.5874L15.3704 11.9183L19.1733 15.4053C19.5667 14.4685 19.8027 13.3755 19.8027 12.2045V12.1265C19.8027 8.119 16.8915 4.76211 12.8001 4.76211C8.70873 4.76211 5.85 8.04093 5.85 12.0484V12.1265C5.85 16.1339 8.76119 19.4908 12.8526 19.4908C13.9803 19.4648 15.0032 19.2826 15.8949 18.8402Z" fill="#000000"/>
  <path d="M39.499 14.207V1.32593H44.4821V14.0769C44.4821 17.7461 46.318 19.6457 49.3866 19.6457C52.4289 19.6457 54.291 17.8241 54.291 14.2331V1.32593H59.2741V14.0509C59.2741 20.8688 55.4188 24.2257 49.3079 24.2257C43.2495 24.2257 39.499 20.8427 39.499 14.207Z" fill="#000000"/>
  <path d="M113.302 15.1959L104.437 1.32593H110.364L115.872 10.5118L121.458 1.32593H127.228L118.364 15.0918V24.2257H113.302V15.1959Z" fill="#000000"/>
  <path d="M81.5148 1.32593H86.157L95.9659 24.1996H90.6942L88.5961 19.0992H78.9184L76.8202 24.1996H71.706L81.5148 1.32593ZM86.8127 14.7015L83.7703 7.33711L80.728 14.7015H86.8127Z" fill="#000000"/>
</svg>
